<?xml version="1.0" encoding="UTF-8"?><svg id="Layer_1" xmlns="http://www.w3.org/2000/svg" viewBox="0 0 1080 1080"><path d="m318.37,342.5c0-14.09,3.96-25.09,11.86-33,7.91-7.91,18.91-11.86,33-11.86,7.19,0,14.24,1.73,21.14,5.18,6.9,3.45,11.93,8.49,15.1,15.1,6.04,3.17,10.64,7.48,13.81,12.94,3.16,5.47,4.75,11.51,4.75,18.12,0,8.35-1.23,16.61-3.67,24.81-2.45,8.2-7.55,14.6-15.32,19.2l.86,1.73c4.89,2.31,8.91,5.54,12.08,9.71,3.16,4.17,4.75,9.13,4.75,14.88,0,10.93-.22,21.86-.65,32.79-.43,10.93-.8,21.86-1.08,32.79-.29,8.92-.43,17.84-.43,26.75s-.43,17.84-1.29,26.75c-1.15,11.22-5.18,20.2-12.08,26.96-6.9,6.75-16.11,10.14-27.61,10.14-6.9,0-13.88-1.8-20.92-5.39-7.05-3.6-12.15-8.7-15.32-15.32-6.9-3.45-11.57-7.77-14.02-12.94-2.44-5.18-3.67-11.5-3.67-18.98v-38.4c0-8.63-.07-17.26-.22-25.89-.14-8.63-.22-17.26-.22-25.89,0-4.6.15-9.42.43-14.45.29-5.03,1.08-9.92,2.37-14.67s3.24-9.2,5.82-13.37c2.59-4.17,6.18-7.55,10.79-10.14l-.43-1.29c-7.19-3.45-12.3-8.48-15.32-15.1-3.02-6.61-4.53-13.66-4.53-21.14Zm40.99,24.59c11.5,0,18.98-3.02,22.43-9.06,3.45-6.04,5.18-14.09,5.18-24.16,0-6.9-2.31-12.01-6.9-15.32-4.6-3.3-10.21-4.96-16.83-4.96-19.27,0-28.91,9.64-28.91,28.91,0,16.39,8.34,24.59,25.02,24.59Zm-23.73,84.99v70.75c0,7.48,2.08,12.88,6.26,16.18,4.17,3.3,9.71,4.96,16.61,4.96s12.79-1.94,16.83-5.82c4.02-3.88,6.32-9.28,6.9-16.18,1.73-19.56,2.73-39.19,3.02-58.89.28-19.7.43-39.33.43-58.89,0-2.59-.86-4.75-2.59-6.47-1.73-1.73-3.82-3.16-6.26-4.31-2.45-1.15-5.04-1.94-7.77-2.37-2.74-.43-5.11-.65-7.12-.65-6.62,0-12.23,1.51-16.83,4.53-4.6,3.02-7.33,7.98-8.2,14.88s-1.29,13.95-1.29,21.14v21.14Z" fill="#04004c" stroke-width="0"/><path d="m379.63,403.33c0-5.75,1.23-10.64,3.67-14.67,2.45-4.02,5.61-7.19,9.49-9.49,3.88-2.3,8.26-3.95,13.16-4.96,4.89-1,9.77-1.51,14.67-1.51.86-8.63,1.51-17.61,1.94-26.96.43-9.34,2.01-17.9,4.75-25.67,2.73-7.77,7.12-14.16,13.16-19.2,6.04-5.03,15.1-7.55,27.18-7.55,6.9,0,13.52,1.66,19.85,4.96,6.32,3.31,11.07,8.13,14.24,14.45,6.04,3.17,10.64,7.48,13.81,12.94,3.16,5.47,4.75,11.51,4.75,18.12,0,4.89-.29,9.78-.86,14.67-.58,4.89-1.15,9.78-1.73,14.67h37.97c.86-8.63,1.51-17.61,1.94-26.96.43-9.34,2.01-17.97,4.75-25.89,2.73-7.91,7.12-14.38,13.16-19.41,6.04-5.03,15.1-7.55,27.18-7.55,6.9,0,13.52,1.66,19.85,4.96,6.32,3.31,11.07,8.13,14.24,14.45,5.75,3.17,10.28,7.48,13.59,12.94,3.3,5.47,4.96,11.51,4.96,18.12,0,4.89-.29,9.71-.86,14.45-.58,4.75-1.15,9.57-1.73,14.45h6.9c6.61,0,12.94,1.58,18.98,4.75,6.04,3.17,10.35,7.91,12.94,14.24,11.79,5.47,17.69,14.53,17.69,27.18,0,7.19-1.58,12.94-4.75,17.26-3.17,4.31-7.27,7.48-12.3,9.49-5.04,2.02-10.64,3.31-16.83,3.88-6.19.58-12.3.86-18.34.86h-12.94c-.58,4.89-1.15,9.92-1.73,15.1-.58,5.18-.86,10.35-.86,15.53,3.16-3.45,6.11-7.04,8.84-10.79,2.73-3.73,5.61-7.04,8.63-9.92,3.02-2.87,6.47-5.24,10.35-7.12,3.88-1.87,8.55-2.8,14.02-2.8,6.61,0,12.87,1.73,18.77,5.18,5.89,3.45,10.28,8.2,13.16,14.24,5.75,2.88,10.35,7.05,13.81,12.51,3.45,5.47,5.18,11.51,5.18,18.12,0,10.07-3.53,19.41-10.57,28.04-7.05,8.63-15.75,16.1-26.1,22.43-10.36,6.32-21.29,11.29-32.79,14.88-11.51,3.59-21.57,5.39-30.2,5.39-10.93,0-21.21-2.02-30.85-6.04-9.64-4.03-17.76-10.79-24.38-20.28l-8.63-7.33c-4.03,4.6-8.84,8.91-14.45,12.94-5.61,4.02-11.58,7.55-17.9,10.57-6.33,3.02-12.8,5.46-19.41,7.33-6.62,1.87-12.94,2.8-18.98,2.8-10.93,0-21.29-2.02-31.06-6.04-9.78-4.03-17.98-10.79-24.59-20.28-7.77-5.18-13.74-11.65-17.9-19.41-4.17-7.77-7.27-16.1-9.28-25.02-2.02-8.91-3.09-18.12-3.24-27.61-.15-9.49.07-18.4.65-26.75-4.03-1.44-7.62-3.45-10.79-6.04-3.17-2.59-5.47-5.89-6.9-9.92-11.5-5.18-17.26-14.09-17.26-26.75Zm45.3,15.1h8.2c-.86,7.77-1.66,15.61-2.37,23.51-.72,7.91-1.08,15.9-1.08,23.94,0,9.49.71,18.7,2.16,27.61,1.44,8.92,4.24,16.76,8.41,23.51,4.17,6.76,9.77,12.23,16.83,16.39,7.04,4.17,16.18,6.26,27.4,6.26,6.61,0,14.02-1.44,22.22-4.31,8.2-2.87,15.89-6.75,23.08-11.65,7.19-4.89,13.23-10.64,18.12-17.26,4.89-6.61,7.33-13.66,7.33-21.14,0-5.75-1.94-10.35-5.82-13.81-3.88-3.45-8.56-5.18-14.02-5.18-6.33,0-11.22,2.23-14.67,6.69-3.45,4.46-6.47,9.42-9.06,14.88-2.59,5.47-5.33,10.43-8.2,14.88-2.88,4.46-6.9,6.69-12.08,6.69-3.74,0-6.69-1.58-8.84-4.75-2.16-3.16-3.74-6.9-4.75-11.22-1.01-4.31-1.66-8.7-1.94-13.16-.29-4.46-.43-7.98-.43-10.57,0-8.34.43-16.83,1.29-25.45s1.87-17.11,3.02-25.45c14.67.29,29.34.43,44.01.43h44c-.58,7.77-1.23,15.53-1.94,23.3-.72,7.77-1.08,15.53-1.08,23.3,0,9.49.71,18.7,2.16,27.61,1.44,8.92,4.17,16.76,8.2,23.51,4.02,6.76,9.63,12.23,16.83,16.39,7.19,4.17,16.39,6.26,27.61,6.26,6.32,0,14.24-1.44,23.73-4.31,9.49-2.87,18.69-6.75,27.61-11.65,8.91-4.89,16.54-10.64,22.87-17.26,6.32-6.61,9.49-13.66,9.49-21.14,0-5.75-1.94-10.35-5.83-13.81-3.88-3.45-8.56-5.18-14.02-5.18-5.18,0-9.92,2.23-14.24,6.69-4.31,4.46-8.63,9.42-12.94,14.88-4.31,5.47-8.84,10.43-13.59,14.88-4.75,4.46-10.14,6.69-16.18,6.69-3.74,0-6.69-1.58-8.84-4.75-2.16-3.16-3.74-6.9-4.75-11.22-1.01-4.31-1.66-8.7-1.94-13.16-.29-4.46-.43-7.98-.43-10.57,0-8.34.36-16.83,1.08-25.45.71-8.63,1.79-17.11,3.24-25.45,4.31,0,8.63.07,12.94.22,4.31.15,8.63.22,12.94.22h8.2c3.16,0,6.47-.14,9.92-.43,3.45-.28,6.61-.93,9.49-1.94,2.87-1,5.24-2.59,7.12-4.75,1.87-2.16,2.8-4.96,2.8-8.41,0-6.61-3.38-10.93-10.14-12.94-6.76-2.01-14.31-3.02-22.65-3.02-5.47,0-10.64.22-15.53.65-4.89.43-8.78.65-11.65.65.86-10.06,2.01-20.2,3.45-30.42,1.44-10.21,2.16-20.34,2.16-30.42,0-6.32-2.09-11.07-6.26-14.24-4.17-3.16-9.13-4.75-14.88-4.75-6.04,0-11.65,1.51-16.83,4.53-5.18,3.02-8.49,7.55-9.92,13.59-2.3,10.07-3.6,20.35-3.88,30.85-.29,10.5-.86,20.78-1.72,30.85h-87.15c.86-10.06,2.08-20.2,3.67-30.42,1.58-10.21,2.37-20.34,2.37-30.42,0-6.32-2.09-11.07-6.26-14.24-4.17-3.16-9.28-4.75-15.32-4.75s-11.29,1.51-16.61,4.53c-5.33,3.02-8.7,7.55-10.14,13.59-2.31,10.07-3.6,20.35-3.88,30.85-.29,10.5-.86,20.78-1.73,30.85-2.31,0-4.53-.07-6.69-.22-2.16-.14-4.39-.22-6.69-.22-2.59,0-5.39.15-8.41.43-3.02.29-5.9.86-8.63,1.73-2.74.86-4.96,2.31-6.69,4.31-1.73,2.02-2.59,4.75-2.59,8.2s.93,6.19,2.8,8.2c1.87,2.02,4.24,3.53,7.12,4.53,2.87,1.01,6.04,1.66,9.49,1.94,3.45.29,6.75.43,9.92.43Zm82.4,45.73c3.45-4.02,7.4-7.26,11.86-9.71,4.46-2.44,9.13-3.81,14.02-4.1h-24.16c-.29,2.31-.58,4.6-.86,6.9-.29,2.31-.58,4.6-.86,6.9Zm41.85-11.22v-2.59h-11.65c4.02.29,7.91,1.15,11.65,2.59Z" fill="#04004c" stroke-width="0"/><path d="m696.3,364.93c.29-8.63.29-17.32,0-26.1-.28-8.77.15-17.47,1.29-26.1,1.44-10.93,5.89-19.27,13.37-25.02,7.48-5.75,16.68-8.63,27.61-8.63,7.48,0,14.81,1.73,22,5.18,7.19,3.45,12.51,8.63,15.96,15.53,12.08,6.33,18.12,16.39,18.12,30.2,0,35.09-.22,70.04-.65,104.84-.43,34.8-.65,69.89-.65,105.27,0,5.75-1.23,10.85-3.67,15.32-2.45,4.46-5.68,8.26-9.71,11.43-4.03,3.16-8.63,5.54-13.81,7.12-5.18,1.58-10.35,2.37-15.53,2.37-7.48,0-14.53-1.58-21.14-4.75-6.62-3.17-11.51-8.2-14.67-15.1-7.48-3.74-12.51-8.84-15.1-15.32-2.59-6.47-3.88-13.59-3.88-21.36v-77.44c0-25.45.15-51.27.43-77.44Zm42.28-69.89c-8.63,0-14.82,2.31-18.55,6.9-3.74,4.6-6.19,10.21-7.33,16.83-1.15,6.62-1.44,13.74-.86,21.36.57,7.62.86,14.31.86,20.06,0,24.74-.22,49.33-.65,73.77-.43,24.45-.65,48.9-.65,73.34,0,4.89.07,9.64.22,14.24.14,4.6.93,8.63,2.37,12.08,1.44,3.45,3.81,6.26,7.12,8.41,3.3,2.16,8.12,3.24,14.45,3.24,2.87,0,5.89-.43,9.06-1.29,3.16-.86,6.04-2.16,8.63-3.88s4.75-3.88,6.47-6.47c1.73-2.59,2.59-5.61,2.59-9.06,0-35.09.22-70.03.65-104.84.43-34.8.65-69.89.65-105.27,0-6.61-2.74-11.5-8.2-14.67-5.47-3.16-11.08-4.75-16.83-4.75Z" fill="#04004c" stroke-width="0"/><path d="m864.12,373.56c10.06,0,20.49,1.58,31.28,4.75,10.79,3.17,19.91,8.2,27.4,15.1,2.01,1.73,3.81,3.6,5.39,5.61,1.58,2.02,3.24,3.88,4.96,5.61,1.44,1.44,2.8,2.59,4.1,3.45s2.66,2.02,4.1,3.45c6.04,6.04,10.5,12.94,13.37,20.71,2.87,7.77,4.31,15.82,4.31,24.16,0,7.19-1.08,14.6-3.24,22.22-2.16,7.62-5.25,14.45-9.28,20.49,7.48,5.47,11.22,12.94,11.22,22.43,0,8.63-3.09,16.39-9.28,23.3-6.19,6.9-13.74,12.73-22.65,17.47-8.92,4.75-18.27,8.41-28.04,11-9.78,2.59-18.27,3.88-25.45,3.88-12.08,0-24.16-1.94-36.24-5.82s-22.43-10.14-31.06-18.77c-1.73-1.73-3.31-3.53-4.75-5.39-1.44-1.87-3.17-3.82-5.18-5.82-1.73-1.73-3.53-3.3-5.39-4.75-1.87-1.44-3.67-3.16-5.39-5.18-7.77-8.63-13.66-18.48-17.69-29.55-4.02-11.07-6.04-22.36-6.04-33.87,0-13.52,3.02-26.03,9.06-37.53,6.04-11.5,13.87-21.5,23.51-29.98,9.63-8.48,20.63-15.1,33-19.85,12.36-4.75,25.02-7.12,37.97-7.12Zm-87.58,94.48c0,11.51,2.01,22.08,6.04,31.71,4.02,9.64,9.63,17.9,16.83,24.81,7.19,6.9,15.67,12.23,25.46,15.96,9.77,3.73,20.42,5.61,31.92,5.61s23.73-2.37,35.81-7.12c12.08-4.75,21.71-11.86,28.91-21.36,1.44-1.73,2.66-3.52,3.67-5.39,1-1.87,1.51-3.95,1.51-6.26,0-2.59-.79-4.89-2.37-6.9-1.58-2.01-3.53-3.67-5.82-4.96-2.3-1.29-4.82-2.22-7.55-2.8-2.74-.57-5.25-.86-7.55-.86-4.89,0-9.13,1.23-12.73,3.67-3.6,2.45-7.12,5.18-10.57,8.2-3.45,3.02-6.98,5.76-10.57,8.2-3.6,2.45-7.98,3.67-13.16,3.67-8.06,0-14.82-2.95-20.28-8.84-5.47-5.89-8.63-12.58-9.49-20.06h59.54c4.31,0,8.2-.07,11.65-.21,3.45-.14,6.61-.79,9.49-1.94,2.87-1.15,5.53-2.95,7.98-5.39s4.67-5.82,6.69-10.14c4.02-8.63,6.04-17.54,6.04-26.75s-1.87-16.61-5.61-23.08c-3.74-6.47-8.63-11.79-14.67-15.96-6.04-4.17-12.88-7.26-20.49-9.28-7.62-2.01-15.32-3.02-23.08-3.02-10.64,0-21.21,2.02-31.71,6.04-10.5,4.03-19.85,9.49-28.04,16.39s-14.88,15.17-20.06,24.81c-5.18,9.64-7.77,20.06-7.77,31.28Zm50.91-14.24c.86-4.02,2.44-8.05,4.75-12.08,2.3-4.02,5.03-7.62,8.2-10.79,3.16-3.16,6.75-5.75,10.79-7.77,4.02-2.01,8.2-3.02,12.51-3.02,5.75,0,10.21,1.87,13.37,5.61,3.16,3.74,4.75,8.35,4.75,13.81,0,5.18-1.29,9.92-3.88,14.24h-50.48Z" fill="#04004c" stroke-width="0"/><path d="m317.9,715.16c0-10.93,2.09-21.14,6.26-30.63,4.17-9.49,10.28-17.97,18.34-25.45-7.19-6.32-10.79-14.52-10.79-24.59,0-8.63,3.02-16.18,9.06-22.65s13.37-11.79,22-15.96c8.63-4.17,17.76-7.26,27.4-9.28,9.63-2.01,17.9-3.02,24.81-3.02,11.22,0,21.79,2.02,31.71,6.04,9.92,4.03,18.19,10.79,24.81,20.28,6.61,4.31,11.93,9.64,15.96,15.96,4.02,6.33,7.19,13.16,9.49,20.49,2.3,7.33,3.88,14.88,4.75,22.65s1.29,15.39,1.29,22.87c0,9.78.43,19.41,1.29,28.91s1.29,19.13,1.29,28.91c0,5.46-1.23,10.35-3.67,14.67-2.45,4.31-5.61,7.91-9.49,10.79-3.88,2.87-8.35,5.1-13.37,6.69-5.04,1.58-10,2.37-14.88,2.37-8.92,0-16.54-2.02-22.87-6.04-12.37,3.73-25.45,5.61-39.26,5.61-5.47,0-11.22-.43-17.26-1.29s-11.86-2.37-17.47-4.53-10.79-4.96-15.53-8.41c-4.75-3.45-8.7-7.77-11.86-12.94-7.48-4.6-13.01-10.5-16.61-17.69-3.59-7.19-5.39-15.1-5.39-23.73Zm69.03,37.1c7.19,0,14.38-.57,21.57-1.73,7.19-1.15,14.09-3.02,20.71-5.61,2.3,2.88,5.24,4.96,8.84,6.26,3.59,1.29,7.12,1.94,10.57,1.94,2.59,0,5.39-.36,8.41-1.08,3.02-.71,5.82-1.87,8.41-3.45,2.59-1.58,4.67-3.52,6.26-5.82,1.58-2.3,2.37-5.03,2.37-8.2,0-9.77-.43-19.48-1.29-29.12-.86-9.63-1.29-19.34-1.29-29.12s-.72-19.27-2.16-28.47c-1.44-9.2-4.25-17.4-8.41-24.59-4.17-7.19-9.92-12.94-17.26-17.26-7.33-4.31-16.9-6.47-28.69-6.47-4.6,0-10.64.72-18.12,2.16-7.48,1.44-14.88,3.6-22.22,6.47-7.33,2.88-13.66,6.54-18.98,11-5.33,4.46-7.98,9.57-7.98,15.32,0,4.89,1.65,8.92,4.96,12.08,3.3,3.17,7.4,4.75,12.3,4.75,4.02,0,7.77-1.08,11.22-3.24,3.45-2.16,6.9-4.46,10.35-6.9,3.45-2.44,7.19-4.75,11.22-6.9,4.02-2.16,8.63-3.24,13.81-3.24,3.45,0,5.89,1.58,7.33,4.75,1.44,3.17,2.3,6.19,2.59,9.06-9.78.58-19.92,2.37-30.42,5.39-10.5,3.02-19.92,7.41-28.26,13.16-8.35,5.76-15.25,12.94-20.71,21.57-5.47,8.63-8.2,18.7-8.2,30.2,0,7.19,1.65,13.23,4.96,18.12,3.3,4.89,7.48,8.7,12.51,11.43,5.03,2.74,10.71,4.68,17.04,5.82,6.32,1.15,12.51,1.73,18.55,1.73Zm36.67-78.09l.86,39.26c-4.03,2.31-8.56,4.39-13.59,6.26-5.04,1.87-10,2.8-14.88,2.8-8.92,0-13.37-4.17-13.37-12.51,0-12.36,4.1-21.36,12.3-26.96s17.76-8.55,28.69-8.84Z" fill="#4e6475" stroke-width="0"/><path d="m475.37,688.42v-78.09c0-5.46,1.15-10.28,3.45-14.45,2.31-4.17,5.32-7.69,9.06-10.57,3.73-2.87,7.98-5.03,12.73-6.47,4.75-1.44,9.56-2.16,14.45-2.16,5.75,0,11.5,1.01,17.26,3.02,5.75,2.02,10.64,5.33,14.67,9.92,4.89-2.01,9.92-3.59,15.1-4.75,5.18-1.15,10.5-1.73,15.96-1.73,8.05,0,16.25,1.58,24.59,4.75,8.34,3.17,14.38,8.78,18.12,16.83,5.46,2.88,9.85,6.69,13.16,11.43,3.3,4.75,4.96,10.14,4.96,16.18,0,4.89-1.01,9.35-3.02,13.37-2.02,4.03-4.68,7.41-7.98,10.14-3.31,2.74-7.12,4.89-11.43,6.47-4.31,1.58-8.78,2.37-13.37,2.37-1.44,0-2.95-.07-4.53-.22-1.58-.14-3.24-.21-4.96-.21-4.6,0-8.41,1.8-11.43,5.39-3.02,3.6-5.47,8.13-7.33,13.59-1.87,5.47-3.17,11.58-3.88,18.34-.72,6.76-1.15,13.45-1.29,20.06-.15,6.62-.15,12.66,0,18.12.14,5.47.22,9.64.22,12.51,0,11.79-3.88,20.78-11.65,26.96-7.77,6.18-17.12,9.28-28.04,9.28-7.19,0-13.95-1.66-20.28-4.96-6.33-3.31-11.08-8.27-14.24-14.88-6.33-3.17-11-7.98-14.02-14.45s-4.96-13.59-5.82-21.36-1.15-15.6-.86-23.51c.29-7.91.43-14.88.43-20.92Zm15.96-78.09v71.62c0,9.49.07,19.06.22,28.69.14,9.64.65,19.06,1.51,28.26.57,6.33,2.87,11,6.9,14.02,4.02,3.02,9.06,4.53,15.1,4.53,6.9,0,12.01-1.15,15.32-3.45,3.3-2.3,5.61-5.24,6.9-8.84,1.29-3.59,1.87-7.83,1.73-12.73-.15-4.89-.22-9.92-.22-15.1,0-6.9.22-15.17.65-24.81.43-9.63,1.94-18.91,4.53-27.83,2.59-8.91,6.54-16.46,11.87-22.65,5.32-6.18,12.87-9.28,22.65-9.28,1.44,0,3.02.15,4.75.43,1.73.29,3.3.43,4.75.43,4.89,0,9.34-1.44,13.38-4.31,4.02-2.87,6.04-6.9,6.04-12.08,0-3.45-1.01-6.4-3.02-8.84-2.02-2.44-4.53-4.31-7.55-5.61-3.02-1.29-6.26-2.22-9.71-2.8-3.45-.57-6.47-.86-9.06-.86-14.96,0-28.33,4.75-40.12,14.24v-5.18c0-2.87-.72-5.25-2.16-7.12-1.44-1.87-3.31-3.45-5.61-4.75-2.31-1.29-4.82-2.22-7.55-2.8-2.74-.57-5.25-.86-7.55-.86-5.47,0-10.79,1.37-15.96,4.1-5.18,2.74-7.77,7.27-7.77,13.59Z" fill="#4e6475" stroke-width="0"/><path d="m600.05,682.81c0-14.38,2.74-27.61,8.2-39.69s12.87-22.5,22.22-31.28c9.34-8.77,20.2-15.67,32.57-20.71,12.36-5.03,25.6-7.55,39.69-7.55,8.05,0,15.96.86,23.73,2.59,8.63-6.32,18.12-9.49,28.47-9.49,6.9,0,13.44,1.66,19.63,4.96,6.18,3.31,10.85,8.13,14.02,14.45,6.04,3.17,10.64,7.48,13.81,12.94,3.16,5.47,4.75,11.51,4.75,18.12,0,23.88-.22,47.67-.65,71.4s-1.23,47.53-2.37,71.4c-.58,15.53-2.37,30.2-5.39,44.01s-8.05,25.89-15.1,36.24c-7.05,10.35-16.39,18.62-28.04,24.81-11.65,6.18-26.53,9.28-44.65,9.28-11.8,0-23.59-2.09-35.38-6.26-11.8-4.17-22.15-10.29-31.06-18.34-2.01-1.73-3.81-3.6-5.39-5.61-1.58-2.02-3.23-3.88-4.96-5.61-5.18-5.18-9.71-10.14-13.59-14.88-3.88-4.75-7.27-9.71-10.14-14.88-2.87-5.18-5.03-10.79-6.47-16.83-1.44-6.04-2.16-12.8-2.16-20.28,0-8.63,2.52-16.04,7.55-22.22,5.03-6.19,11.57-10.42,19.63-12.73-9.21-8.34-16.33-17.97-21.36-28.91-5.03-10.93-7.55-22.58-7.55-34.95Zm15.96,0c0,10.93,2.22,20.78,6.69,29.55,4.46,8.78,10.35,16.33,17.69,22.65,7.33,6.33,15.75,11.15,25.24,14.45,9.49,3.3,19.41,4.96,29.77,4.96,10.93,0,20.99-1.87,30.2-5.61,0,4.31-.43,10.57-1.29,18.77-.86,8.2-2.37,16.32-4.53,24.38-2.16,8.05-5.18,15.1-9.06,21.14s-8.84,9.06-14.88,9.06c-6.9,0-12.3-1.51-16.18-4.53-3.88-3.02-6.84-6.83-8.84-11.43-2.02-4.6-3.67-9.49-4.96-14.67-1.29-5.18-2.8-10.07-4.53-14.67-1.72-4.6-4.1-8.41-7.12-11.43-3.02-3.02-7.55-4.53-13.59-4.53s-11,1.87-15.75,5.61c-4.75,3.73-7.12,8.77-7.12,15.1,0,10.64,2.08,20.34,6.26,29.12,4.17,8.77,9.78,16.25,16.83,22.43,7.04,6.18,15.17,11,24.38,14.45,9.2,3.45,18.98,5.18,29.34,5.18,15.81,0,28.69-2.59,38.61-7.77,9.92-5.18,17.76-12.3,23.51-21.36,5.75-9.06,9.78-19.56,12.08-31.49,2.3-11.94,3.73-24.67,4.31-38.18.86-23.87,1.58-47.52,2.16-70.97.57-23.44.86-47.09.86-70.97,0-6.32-2.02-11.14-6.04-14.45-4.03-3.3-9.06-4.96-15.1-4.96-4.61,0-8.99.94-13.16,2.8-4.17,1.87-7.7,4.68-10.57,8.41-8.92-2.87-18.41-4.31-28.47-4.31-11.8,0-22.94,2.09-33.44,6.26-10.5,4.17-19.71,9.92-27.61,17.26-7.91,7.33-14.17,16.11-18.77,26.32-4.6,10.21-6.9,21.36-6.9,33.44Zm48.32,0c0-5.75.71-11.72,2.16-17.9,1.44-6.18,3.67-11.86,6.69-17.04,3.02-5.18,6.9-9.42,11.65-12.73,4.75-3.3,10.42-4.96,17.04-4.96,4.6,0,8.99.86,13.16,2.59,4.17,1.73,7.98,3.88,11.43,6.47.28,5.76.43,11.51.43,17.26v17.26c0,5.76-.29,11.58-.86,17.47-.58,5.9-1.94,11.15-4.1,15.75-2.16,4.6-5.33,8.35-9.49,11.22-4.17,2.88-10,4.31-17.47,4.31-5.47,0-10.14-1.15-14.02-3.45-3.88-2.3-7.05-5.32-9.49-9.06-2.45-3.73-4.25-7.98-5.39-12.73-1.15-4.75-1.72-9.56-1.72-14.45Zm32.36,122.09c2.3-3.17,4.03-6.33,5.18-9.49,1.15-3.17,2.16-6.47,3.02-9.92-2.3-.29-4.68-.5-7.12-.65-2.45-.15-4.82-.51-7.12-1.08,1.44,3.45,2.59,6.97,3.45,10.57.86,3.59,1.73,7.12,2.59,10.57Zm-1.29-106.56c0,1.44.07,2.74.21,3.88.14,1.15.36,2.45.65,3.88,3.45-.28,6.18-1.36,8.2-3.24,2.01-1.87,3.52-4.17,4.53-6.9,1-2.73,1.65-5.68,1.94-8.84.28-3.16.43-6.04.43-8.63s-.07-5.18-.22-7.77c-.15-2.59-.21-5.18-.21-7.77-5.76,2.88-9.78,7.98-12.08,15.32-2.31,7.33-3.45,14.02-3.45,20.06Z" fill="#4e6475" stroke-width="0"/><path d="m876.6,584.44c10.06,0,20.49,1.58,31.28,4.75,10.79,3.17,19.91,8.2,27.4,15.1,2.01,1.73,3.81,3.6,5.39,5.61,1.58,2.02,3.24,3.88,4.96,5.61,1.44,1.44,2.8,2.59,4.1,3.45,1.29.86,2.66,2.02,4.1,3.45,6.04,6.04,10.5,12.94,13.37,20.71,2.87,7.77,4.31,15.82,4.31,24.16,0,7.19-1.08,14.6-3.24,22.22-2.16,7.62-5.25,14.45-9.28,20.49,7.48,5.47,11.22,12.94,11.22,22.43,0,8.63-3.09,16.39-9.28,23.3-6.19,6.9-13.74,12.73-22.65,17.47-8.92,4.75-18.27,8.41-28.04,11-9.78,2.59-18.27,3.88-25.45,3.88-12.08,0-24.16-1.94-36.24-5.82s-22.43-10.14-31.06-18.77c-1.73-1.73-3.31-3.53-4.75-5.39-1.44-1.87-3.17-3.82-5.18-5.82-1.73-1.73-3.53-3.3-5.39-4.75-1.87-1.44-3.67-3.16-5.39-5.18-7.77-8.63-13.66-18.48-17.69-29.55-4.02-11.07-6.04-22.36-6.04-33.87,0-13.52,3.02-26.03,9.06-37.53,6.04-11.5,13.87-21.5,23.51-29.98,9.63-8.48,20.63-15.1,33-19.85,12.36-4.75,25.02-7.12,37.97-7.12Zm-87.58,94.48c0,11.51,2.01,22.08,6.04,31.71,4.02,9.64,9.63,17.9,16.83,24.81,7.19,6.9,15.67,12.23,25.46,15.96,9.77,3.73,20.42,5.61,31.92,5.61s23.73-2.37,35.81-7.12c12.08-4.75,21.71-11.86,28.91-21.36,1.44-1.73,2.66-3.52,3.67-5.39,1-1.87,1.51-3.95,1.51-6.26,0-2.59-.79-4.89-2.37-6.9-1.58-2.01-3.53-3.67-5.82-4.96-2.3-1.29-4.82-2.22-7.55-2.8-2.74-.57-5.25-.86-7.55-.86-4.89,0-9.13,1.23-12.73,3.67-3.6,2.45-7.12,5.18-10.57,8.2-3.45,3.02-6.98,5.76-10.57,8.2-3.6,2.45-7.98,3.67-13.16,3.67-8.06,0-14.82-2.95-20.28-8.84-5.47-5.89-8.63-12.58-9.49-20.06h59.54c4.31,0,8.2-.07,11.65-.21,3.45-.14,6.61-.79,9.49-1.94,2.87-1.15,5.53-2.95,7.98-5.39s4.67-5.82,6.69-10.14c4.02-8.63,6.04-17.54,6.04-26.75s-1.87-16.61-5.61-23.08c-3.74-6.47-8.63-11.79-14.67-15.96-6.04-4.17-12.88-7.26-20.49-9.28-7.62-2.01-15.32-3.02-23.08-3.02-10.64,0-21.21,2.02-31.71,6.04-10.5,4.03-19.85,9.49-28.04,16.39-8.2,6.9-14.88,15.17-20.06,24.81-5.18,9.64-7.77,20.06-7.77,31.28Zm50.91-14.24c.86-4.02,2.44-8.05,4.75-12.08,2.3-4.02,5.03-7.62,8.2-10.79,3.16-3.16,6.75-5.75,10.79-7.77,4.02-2.01,8.2-3.02,12.51-3.02,5.75,0,10.21,1.87,13.37,5.61,3.16,3.74,4.75,8.35,4.75,13.81,0,5.18-1.29,9.92-3.88,14.24h-50.48Z" fill="#4e6475" stroke-width="0"/><path d="m309.65,640.2c-.51,15.29-.51,30.69,0,46.24.5,15.54-.26,30.96-2.29,46.24-2.56,19.36-10.44,34.13-23.69,44.33-13.25,10.19-29.55,15.29-48.92,15.29-13.25,0-26.24-3.06-38.98-9.17-12.73-6.12-22.17-15.29-28.28-27.52-21.4-11.21-32.1-29.05-32.1-53.5,0-62.18.38-124.09,1.15-185.74.76-61.66,1.15-123.83,1.15-186.5,0-10.19,2.17-19.23,6.5-27.13,4.34-7.89,10.07-14.64,17.2-20.26,7.14-5.6,15.29-9.8,24.46-12.61,9.17-2.79,18.34-4.2,27.52-4.2,13.26,0,25.74,2.81,37.45,8.41,11.73,5.61,20.39,14.52,25.99,26.75,13.26,6.63,22.17,15.67,26.75,27.13,4.59,11.47,6.88,24.08,6.88,37.84v137.2c0,45.1-.26,90.83-.76,137.2Zm-74.91,123.83c15.29,0,26.25-4.08,32.87-12.23,6.63-8.16,10.96-18.09,12.99-29.81,2.04-11.73,2.56-24.34,1.53-37.84-1.02-13.51-1.53-25.36-1.53-35.54,0-43.83.38-87.4,1.15-130.71.76-43.32,1.15-86.64,1.15-129.94,0-8.67-.12-17.08-.38-25.22-.25-8.16-1.65-15.29-4.2-21.4-2.54-6.11-6.75-11.08-12.61-14.9-5.85-3.82-14.39-5.73-25.61-5.73-5.09,0-10.44.76-16.05,2.29-5.6,1.53-10.7,3.82-15.29,6.88-4.59,3.06-8.41,6.88-11.47,11.46-3.06,4.59-4.59,9.94-4.59,16.05,0,62.16-.38,124.08-1.15,185.74-.76,61.65-1.15,123.83-1.15,186.5,0,11.72,4.85,20.38,14.52,25.99,9.69,5.6,19.62,8.41,29.81,8.41Z" fill="#04004c" stroke-width="0"/></svg>