<svg xmlns="http://www.w3.org/2000/svg" xmlns:xlink="http://www.w3.org/1999/xlink" version="1.1" xml:space="preserve" viewBox="1.41 1.42 252.9 252.89">

<defs>
</defs>
<g style="stroke: none; stroke-width: 0; stroke-dasharray: none; stroke-linecap: butt; stroke-linejoin: miter; stroke-miterlimit: 10; fill: none; fill-rule: nonzero; opacity: 1;" transform="translate(1.4065934065934016 1.4065934065934016) scale(2.81 2.81)">
	<path d="M 45 90 c -2.791 0 -5.415 -1.087 -7.388 -3.061 c -4.552 -4.553 -10.605 -7.06 -17.043 -7.06 c -5.761 0 -10.448 -4.688 -10.448 -10.448 c 0 -6.438 -2.507 -12.491 -7.06 -17.044 C 1.087 50.415 0 47.791 0 45 c 0 -2.791 1.087 -5.415 3.061 -7.388 c 4.552 -4.553 7.06 -10.606 7.06 -17.044 c 0 -5.761 4.687 -10.448 10.448 -10.448 c 6.438 0 12.492 -2.507 17.044 -7.06 c 4.073 -4.074 10.701 -4.074 14.775 0 c 4.553 4.553 10.605 7.06 17.044 7.06 c 5.761 0 10.448 4.687 10.448 10.448 c 0 6.438 2.507 12.492 7.06 17.044 C 88.913 39.585 90 42.209 90 45 s -1.087 5.415 -3.061 7.388 l 0 0 c -4.553 4.553 -7.06 10.605 -7.06 17.044 c 0 5.761 -4.688 10.448 -10.448 10.448 c -6.438 0 -12.491 2.507 -17.044 7.06 C 50.415 88.913 47.791 90 45 90 z M 45 6.002 c -1.139 0 -2.278 0.434 -3.146 1.3 c -5.686 5.686 -13.245 8.817 -21.286 8.817 c -2.453 0 -4.448 1.995 -4.448 4.448 c 0 8.041 -3.131 15.601 -8.817 21.287 C 6.463 42.695 6 43.812 6 45 c 0 1.188 0.463 2.306 1.303 3.146 c 5.686 5.686 8.817 13.245 8.817 21.286 c 0 2.453 1.995 4.448 4.448 4.448 c 8.041 0 15.601 3.131 21.287 8.817 C 42.695 83.537 43.812 84 45 84 c 1.188 0 2.305 -0.463 3.145 -1.303 c 5.687 -5.687 13.246 -8.817 21.287 -8.817 c 2.453 0 4.448 -1.995 4.448 -4.448 c 0 -8.041 3.131 -15.601 8.817 -21.286 v -0.001 C 83.537 47.305 84 46.188 84 45 c 0 -1.188 -0.463 -2.305 -1.303 -3.145 c -5.687 -5.686 -8.817 -13.246 -8.817 -21.287 c 0 -2.453 -1.995 -4.448 -4.448 -4.448 c -8.041 0 -15.601 -3.131 -21.286 -8.817 C 47.278 6.436 46.139 6.002 45 6.002 z" style="stroke: none; stroke-width: 1; stroke-dasharray: none; stroke-linecap: butt; stroke-linejoin: miter; stroke-miterlimit: 10; fill: rgb(0,0,0); fill-rule: nonzero; opacity: 1;" transform=" matrix(1 0 0 1 0 0) " stroke-linecap="round"/>
	<path d="M 45 66.249 c -11.717 0 -21.249 -9.532 -21.249 -21.249 S 33.283 23.751 45 23.751 S 66.249 33.283 66.249 45 S 56.717 66.249 45 66.249 z M 45 29.751 c -8.408 0 -15.249 6.841 -15.249 15.249 S 36.592 60.249 45 60.249 S 60.249 53.408 60.249 45 S 53.408 29.751 45 29.751 z" style="stroke: none; stroke-width: 1; stroke-dasharray: none; stroke-linecap: butt; stroke-linejoin: miter; stroke-miterlimit: 10; fill: rgb(0,0,0); fill-rule: nonzero; opacity: 1;" transform=" matrix(1 0 0 1 0 0) " stroke-linecap="round"/>
</g>
</svg>